<svg width="79" height="81" viewBox="0 0 79 81" fill="none" xmlns="http://www.w3.org/2000/svg">
<path fill-rule="evenodd" clip-rule="evenodd" d="M44.32 73.64C63.2744 73.64 78.64 58.2744 78.64 39.32C78.64 20.3656 63.2744 5 44.32 5C25.3656 5 10 20.3656 10 39.32C10 49.9926 14.8716 59.5274 22.5124 65.822C22.5245 65.832 22.5137 65.8515 22.4988 65.8464C22.4896 65.8433 22.48 65.8501 22.48 65.8598V76.5042C22.48 79.4834 25.6202 81.4171 28.2806 80.076L40.292 74.0212C40.9554 73.6867 41.6986 73.5494 42.4406 73.5894C43.0628 73.623 43.6894 73.64 44.32 73.64Z" fill="#FE4035" fill-opacity="0.1"/>
<path fill-rule="evenodd" clip-rule="evenodd" d="M39.0001 68.64C57.9545 68.64 73.3201 53.2744 73.3201 34.32C73.3201 15.3656 57.9545 0 39.0001 0C20.0456 0 4.68005 15.3656 4.68005 34.32C4.68005 44.9926 9.55162 54.5274 17.1924 60.822C17.2046 60.832 17.1937 60.8515 17.1788 60.8464C17.1696 60.8433 17.1601 60.8501 17.1601 60.8598V71.5042C17.1601 74.4834 20.3003 76.4171 22.9606 75.076L34.972 69.0212C35.6355 68.6867 36.3787 68.5494 37.1206 68.5894C37.7428 68.623 38.3695 68.64 39.0001 68.64Z" fill="#FE4035"/>
<path d="M35.2283 17H42.8858C43.6583 17.0513 44.2969 17.334 44.8014 17.8481C45.3027 18.3588 45.5796 19.0131 45.6071 19.7294C45.6187 20.0398 45.621 20.3642 45.6139 20.7025C45.6138 20.7083 45.6148 20.714 45.6169 20.7194C45.619 20.7248 45.6221 20.7297 45.6261 20.7338C45.6301 20.7379 45.635 20.7412 45.6403 20.7435C45.6456 20.7457 45.6513 20.7469 45.6571 20.7469C47.3562 20.754 49.0189 20.7531 50.6452 20.7444C51.2239 20.7415 51.61 20.7729 51.8033 20.8388C52.6921 21.1413 53.2289 21.9838 53.0846 22.9225C52.9746 23.6369 52.4483 24.2231 51.7602 24.4225C51.5702 24.4775 51.2987 24.5048 50.9458 24.5044C42.7517 24.4977 34.7614 24.4977 26.9752 24.5044C26.7394 24.5044 26.5239 24.4754 26.3289 24.4175C24.9964 24.0225 24.5714 22.3663 25.4902 21.3625C25.7298 21.1008 26.0089 20.9238 26.3277 20.8313C26.516 20.7767 26.7767 20.7494 27.1096 20.7494C28.8575 20.7498 30.6398 20.7494 32.4564 20.7481C32.476 20.7481 32.486 20.7383 32.4864 20.7188C32.4906 20.4233 32.4929 20.1425 32.4933 19.8763C32.4939 19.0963 32.7746 18.3769 33.3283 17.8244C33.8304 17.324 34.4637 17.0492 35.2283 17ZM34.4046 20.75H43.7008C43.7129 20.75 43.7245 20.7452 43.7331 20.7366C43.7416 20.7281 43.7464 20.7165 43.7464 20.7044V19.87C43.7464 19.6048 43.6385 19.3504 43.4464 19.1629C43.2543 18.9754 42.9937 18.87 42.7221 18.87H35.3833C35.1116 18.87 34.8511 18.9754 34.659 19.1629C34.4669 19.3504 34.3589 19.6048 34.3589 19.87V20.7044C34.3589 20.7104 34.3601 20.7163 34.3624 20.7218C34.3647 20.7274 34.3681 20.7324 34.3723 20.7366C34.3765 20.7409 34.3816 20.7442 34.3871 20.7465C34.3926 20.7488 34.3986 20.75 34.4046 20.75Z" fill="white"/>
<path d="M46.7846 49H31.3146C30.9504 48.9729 30.6394 48.9065 30.3815 48.8006C29.6102 48.484 29.0688 47.9225 28.7571 47.1162C28.6633 46.8744 28.6133 46.5637 28.5921 46.3081C28.045 39.689 27.4954 33.0513 26.9433 26.395C26.9431 26.3925 26.9433 26.3899 26.9441 26.3875C26.9449 26.3851 26.9462 26.3828 26.9479 26.381C26.9496 26.3791 26.9517 26.3776 26.9541 26.3765C26.9564 26.3755 26.9589 26.375 26.9615 26.375H51.1452C51.1581 26.375 51.164 26.3815 51.1627 26.3944C50.5985 33.2227 50.0454 39.8992 49.5033 46.4237C49.4833 46.6637 49.429 46.9029 49.3402 47.1413C49.2585 47.3621 49.1515 47.5677 49.019 47.7581C48.496 48.5123 47.7513 48.9263 46.7846 49ZM34.3699 29.1238C34.3625 29.0024 34.3312 28.8836 34.2779 28.7743C34.2246 28.665 34.1503 28.5672 34.0592 28.4866C33.9681 28.406 33.862 28.3441 33.747 28.3045C33.632 28.2649 33.5103 28.2484 33.3889 28.2558L33.3664 28.2572C33.1212 28.2722 32.892 28.384 32.7292 28.568C32.5665 28.7519 32.4834 28.9931 32.4984 29.2383L33.4242 44.375C33.4317 44.4964 33.4629 44.6151 33.5162 44.7245C33.5696 44.8338 33.6439 44.9315 33.735 45.0121C33.8261 45.0927 33.9322 45.1546 34.0472 45.1942C34.1622 45.2338 34.2839 45.2504 34.4053 45.2429L34.4278 45.2416C34.673 45.2266 34.9022 45.1148 35.0649 44.9308C35.2277 44.7468 35.3107 44.5057 35.2957 44.2605L34.3699 29.1238ZM39.9902 29.1806C39.9902 28.9351 39.8927 28.6997 39.7191 28.5261C39.5455 28.3525 39.3101 28.255 39.0646 28.255H39.0421C38.7966 28.255 38.5612 28.3525 38.3876 28.5261C38.214 28.6997 38.1165 28.9351 38.1165 29.1806V44.3194C38.1165 44.5649 38.214 44.8003 38.3876 44.9739C38.5612 45.1475 38.7966 45.245 39.0421 45.245H39.0646C39.3101 45.245 39.5455 45.1475 39.7191 44.9739C39.8927 44.8003 39.9902 44.5649 39.9902 44.3194V29.1806ZM45.6075 29.2407C45.6225 28.9955 45.5395 28.7544 45.3767 28.5704C45.214 28.3864 44.9848 28.2746 44.7396 28.2596L44.7183 28.2583C44.4731 28.2433 44.232 28.3264 44.048 28.4891C43.8641 28.6519 43.7523 28.8811 43.7373 29.1263L42.8116 44.2605C42.7966 44.5057 42.8797 44.7468 43.0424 44.9308C43.2052 45.1148 43.4344 45.2266 43.6796 45.2416L43.7008 45.2429C43.946 45.2579 44.1871 45.1749 44.3711 45.0121C44.5551 44.8493 44.6669 44.6201 44.6819 44.3749L45.6075 29.2407Z" fill="white"/>
</svg>
