<svg width="79" height="81" viewBox="0 0 79 81" fill="none" xmlns="http://www.w3.org/2000/svg">
<path fill-rule="evenodd" clip-rule="evenodd" d="M44.32 73.6399C63.2744 73.6399 78.64 58.2743 78.64 39.3199C78.64 20.3655 63.2744 4.99988 44.32 4.99988C25.3656 4.99988 10 20.3655 10 39.3199C10 49.9925 14.8716 59.5273 22.5124 65.8219C22.5245 65.8319 22.5137 65.8514 22.4988 65.8463C22.4896 65.8432 22.48 65.85 22.48 65.8597V76.5041C22.48 79.4833 25.6202 81.417 28.2806 80.0759L40.292 74.021C40.9554 73.6866 41.6986 73.5493 42.4406 73.5893C43.0628 73.6229 43.6894 73.6399 44.32 73.6399Z" fill="#FE4035" fill-opacity="0.1"/>
<path fill-rule="evenodd" clip-rule="evenodd" d="M39.0002 68.64C57.9546 68.64 73.3202 53.2744 73.3202 34.32C73.3202 15.3656 57.9546 0 39.0002 0C20.0458 0 4.68018 15.3656 4.68018 34.32C4.68018 44.9926 9.55174 54.5274 17.1925 60.822C17.2047 60.832 17.1939 60.8515 17.1789 60.8464C17.1698 60.8433 17.1602 60.8501 17.1602 60.8598V71.5042C17.1602 74.4834 20.3004 76.4171 22.9607 75.076L34.9722 69.0212C35.6356 68.6867 36.3788 68.5494 37.1207 68.5894C37.743 68.623 38.3696 68.64 39.0002 68.64Z" fill="#FE4035"/>
<path d="M48.8137 25.6379C49.6421 24.8095 49.6421 23.4664 48.8137 22.638L48.3622 22.1865C47.5338 21.3581 46.1907 21.3581 45.3623 22.1865L39.0002 28.5486L32.6381 22.1865C31.8097 21.3581 30.4666 21.3581 29.6382 22.1865L29.1867 22.638C28.3583 23.4664 28.3583 24.8095 29.1867 25.6379L35.5488 32L29.1867 38.362C28.3583 39.1904 28.3583 40.5336 29.1867 41.362L29.6382 41.8134C30.4666 42.6419 31.8097 42.6419 32.6381 41.8134L39.0002 35.4514L45.3623 41.8134C46.1907 42.6418 47.5338 42.6419 48.3622 41.8134L48.8137 41.362C49.6421 40.5336 49.6421 39.1904 48.8137 38.362L42.4516 32L48.8137 25.6379Z" fill="white"/>
</svg>
