<svg width="79" height="81" viewBox="0 0 79 81" fill="none" xmlns="http://www.w3.org/2000/svg">
<path fill-rule="evenodd" clip-rule="evenodd" d="M44.32 73.6399C63.2744 73.6399 78.64 58.2743 78.64 39.3199C78.64 20.3655 63.2744 4.99988 44.32 4.99988C25.3656 4.99988 10 20.3655 10 39.3199C10 49.9925 14.8716 59.5273 22.5124 65.8219C22.5245 65.8319 22.5137 65.8514 22.4988 65.8463C22.4896 65.8432 22.48 65.85 22.48 65.8597V76.5041C22.48 79.4833 25.6202 81.417 28.2806 80.0759L40.292 74.021C40.9554 73.6866 41.6986 73.5493 42.4406 73.5893C43.0628 73.6229 43.6894 73.6399 44.32 73.6399Z" fill="#01563C" fill-opacity="0.1"/>
<path fill-rule="evenodd" clip-rule="evenodd" d="M38.9999 68.64C57.9543 68.64 73.3199 53.2744 73.3199 34.32C73.3199 15.3656 57.9543 0 38.9999 0C20.0455 0 4.67993 15.3656 4.67993 34.32C4.67993 44.9926 9.5515 54.5274 17.1923 60.822C17.2045 60.832 17.1936 60.8515 17.1787 60.8464C17.1695 60.8433 17.16 60.8501 17.16 60.8598V71.5042C17.16 74.4834 20.3001 76.4171 22.9605 75.076L34.9719 69.0212C35.6354 68.6867 36.3786 68.5494 37.1205 68.5894C37.7427 68.623 38.3693 68.64 38.9999 68.64Z" fill="#1AAA55"/>
<path fill-rule="evenodd" clip-rule="evenodd" d="M50.3012 24.3463C51.3603 25.1583 51.5625 26.6744 50.7531 27.7356L38.7428 43.4828C38.3193 44.0381 37.6774 44.3831 36.9817 44.4294C36.2861 44.4757 35.6044 44.2188 35.1114 43.7245L27.4884 36.0814C26.5456 35.1362 26.5456 33.6063 27.4884 32.661C28.4346 31.7123 29.9715 31.7123 30.9177 32.661L36.5784 38.3366L46.9033 24.7993C47.7155 23.7343 49.2382 23.5313 50.3012 24.3463Z" fill="white"/>
</svg>
