<svg width="79" height="81" viewBox="0 0 79 81" fill="none" xmlns="http://www.w3.org/2000/svg">
<path fill-rule="evenodd" clip-rule="evenodd" d="M44.32 73.6399C63.2744 73.6399 78.64 58.2743 78.64 39.3199C78.64 20.3655 63.2744 4.99988 44.32 4.99988C25.3656 4.99988 10 20.3655 10 39.3199C10 49.9925 14.8716 59.5273 22.5124 65.8219C22.5245 65.8319 22.5137 65.8514 22.4988 65.8463V65.8463C22.4896 65.8432 22.48 65.85 22.48 65.8597V76.5041C22.48 79.4833 25.6202 81.417 28.2806 80.0759L40.292 74.021C40.9554 73.6866 41.6986 73.5493 42.4406 73.5893C43.0628 73.6229 43.6894 73.6399 44.32 73.6399Z" fill="#FF9500" fill-opacity="0.1"/>
<path fill-rule="evenodd" clip-rule="evenodd" d="M39.0002 68.64C57.9546 68.64 73.3202 53.2744 73.3202 34.32C73.3202 15.3656 57.9546 0 39.0002 0C20.0458 0 4.68018 15.3656 4.68018 34.32C4.68018 44.9926 9.55174 54.5274 17.1925 60.822C17.2047 60.832 17.1939 60.8515 17.1789 60.8464C17.1698 60.8433 17.1602 60.8501 17.1602 60.8598V71.5042C17.1602 74.4834 20.3004 76.4171 22.9607 75.076L34.9722 69.0212C35.6356 68.6867 36.3788 68.5494 37.1207 68.5894C37.743 68.623 38.3696 68.64 39.0002 68.64Z" fill="#FF9500"/>
<path fill-rule="evenodd" clip-rule="evenodd" d="M34.8696 35.5652C34.8696 37.222 36.2128 38.5652 37.8696 38.5652H38.1305C39.7874 38.5652 41.1305 37.222 41.1305 35.5652L41.1305 22.0869C41.1305 20.4301 39.7874 19.0869 38.1305 19.0869H37.8696C36.2128 19.0869 34.8696 20.4301 34.8696 22.0869V35.5652ZM38.0001 46.913C39.729 46.913 41.1305 45.5115 41.1305 43.7826C41.1305 42.0537 39.729 40.6521 38.0001 40.6521C36.2712 40.6521 34.8696 42.0537 34.8696 43.7826C34.8696 45.5115 36.2712 46.913 38.0001 46.913Z" fill="white"/>
</svg>
