<svg xmlns="http://www.w3.org/2000/svg" width="87.633" height="87.639" viewBox="0 0 87.633 87.639">
  <g id="Group_165" data-name="Group 165" transform="translate(-316.946 -21.644)">
    <path id="Path_134" data-name="Path 134" d="M393.593,60.7a42.4,42.4,0,0,0-84.716-.774c-.02.615-.039,1.23-.039,1.845A41.758,41.758,0,0,0,314.91,83.5l-7.64,22.563L330.746,98.6A42.442,42.442,0,0,0,393.612,61.77c0-.357,0-.714-.019-1.072M351.225,97.132a35.491,35.491,0,0,1-19.607-5.854l-13.693,4.366,4.446-13.137a35.005,35.005,0,0,1-6.787-20.737,33.053,33.053,0,0,1,.178-3.433,35.655,35.655,0,0,1,70.984.674c.079.913.119,1.825.119,2.758a35.542,35.542,0,0,1-35.641,35.362" transform="translate(10.467 2.445)" fill="#103947" stroke="rgba(0,0,0,0)" stroke-width="1" fill-rule="evenodd"/>
    <path id="Path_135" data-name="Path 135" d="M369.4,69.034c-1.052-.516-6.152-3.016-7.1-3.353-.953-.357-1.648-.517-2.342.516s-2.7,3.353-3.294,4.029c-.615.694-1.209.774-2.262.258a28.129,28.129,0,0,1-8.355-5.12,30.817,30.817,0,0,1-5.775-7.124c-.6-1.031-.059-1.587.457-2.1.477-.476,1.033-1.21,1.568-1.806.138-.178.257-.337.376-.5a11.53,11.53,0,0,0,.655-1.231,1.859,1.859,0,0,0-.079-1.805c-.258-.516-2.342-5.6-3.215-7.66-.853-2.063-1.727-1.707-2.342-1.707-.6,0-1.289-.1-1.984-.1a3.839,3.839,0,0,0-2.778,1.289,11.543,11.543,0,0,0-3.632,8.612,13.077,13.077,0,0,0,.537,3.513,23.394,23.394,0,0,0,3.711,7.143c.516.675,7.183,11.431,17.741,15.579,10.577,4.107,10.577,2.738,12.482,2.559,1.9-.159,6.151-2.48,7-4.9.874-2.4.874-4.465.615-4.9-.258-.417-.952-.675-1.984-1.191" transform="translate(11.72 3.675)" fill="#103947" stroke="rgba(0,0,0,0)" stroke-width="1" fill-rule="evenodd"/>
  </g>
</svg>
